<svg version="1.1" xmlns="http://www.w3.org/2000/svg" style="display: block;" viewBox="0 0 2048 2048" width="1024" height="1024" preserveAspectRatio="none">
<path transform="translate(0,0)" fill="rgb(254,139,2)" d="M 1018.55 41.3707 C 1030.64 41.0001 1041.04 40.6665 1052.32 46.1858 C 1080.7 60.0737 1108.29 76.8037 1135.69 92.3246 L 1307.97 191.34 L 1482.18 291.092 C 1596.32 358.159 1711.07 424.184 1826.41 489.16 C 1888.65 523.756 1888.34 535.762 1887.05 604.498 C 1886.86 618.766 1886.79 633.036 1886.83 647.305 L 1885.93 877.427 L 1885.37 1273.38 L 1885.67 1409.39 C 1885.76 1434.47 1886.15 1460.24 1885.58 1484.91 C 1885.09 1506.3 1869.53 1527.55 1851.77 1538.23 C 1824.31 1554.73 1796 1571.19 1768.12 1586.91 L 1668.65 1643.66 L 1390.77 1804.2 L 1153.93 1941.33 L 1098.44 1973.45 C 1077.34 1985.82 1057.9 1999.63 1034.13 2006 C 1022.32 2006.51 1012.95 2006.98 1001.58 2002.96 C 988.028 1998.17 975.821 1991.03 964.017 1982.88 C 958.492 1979.06 952.851 1974.14 947.039 1970.88 C 911.647 1951.02 876.373 1930.61 841.194 1910.39 L 484.592 1706.45 L 269.365 1584.39 L 217.338 1554.3 C 159.544 1520.89 161.059 1514.38 161.075 1448.75 L 161.137 1366.93 L 161.655 1094.5 L 161.815 735.737 L 161.878 621.812 C 161.892 601.398 161.349 579.776 162.37 559.52 C 163.326 540.552 180.647 517.613 196.656 508.311 C 227.386 490.455 258.738 473.729 289.346 455.729 L 608.947 270.751 C 738.455 196.445 866.757 119.783 997.143 46.9686 C 1004.27 42.9896 1010.69 42.2408 1018.55 41.3707 z M 1043.52 1310.27 C 1201.76 1299.65 1321.45 1162.79 1310.91 1004.55 C 1300.37 846.297 1163.58 726.532 1005.32 736.993 C 846.951 747.461 727.078 884.374 737.629 1042.74 C 748.18 1201.11 885.156 1320.91 1043.52 1310.27 z M 510.92 1237.11 C 531.131 1223.77 556.427 1212.19 576.233 1198.92 C 568.779 1183.17 566.923 1173.77 562.256 1157.2 C 535.967 1063.85 537.946 957.019 569.392 865.069 C 571.352 859.337 574.087 853.415 576.689 847.981 C 540.62 826.461 502.151 806.241 465.97 784.491 C 446.673 772.89 419.414 753.14 396.713 754.484 C 381.031 756.245 372.591 762.284 361.931 773.982 C 358.515 777.731 354.277 785.854 354.039 790.995 C 352.775 818.348 353.109 846.828 353.071 874.224 L 353.018 1036.61 L 353.063 1181.74 C 353.08 1206.36 352.586 1231.18 353.889 1255.81 C 354.426 1265.95 363.933 1276.09 371.39 1282.5 C 382.386 1291.95 407.904 1295.94 421.165 1288.95 C 440.009 1279.03 459.381 1265.71 478.081 1255.19 C 485.629 1250.62 505.412 1241 510.92 1237.11 z M 1095.82 1499.6 L 1095.73 1625.78 C 1095.72 1636.83 1095.6 1648.04 1095.74 1659.02 C 1095.99 1678.86 1093.48 1691.02 1108.9 1706.49 C 1122.59 1720.22 1141.76 1725.05 1160.41 1718.85 C 1170.04 1715.31 1179.83 1707.42 1188.96 1702.59 C 1202.47 1694.32 1215.79 1686.84 1229.43 1678.95 C 1260 1662.85 1295.18 1641.42 1325.32 1623.92 L 1455.56 1548.47 C 1465.73 1542.49 1477.95 1536.04 1488.11 1529.75 C 1509.28 1516.65 1565.56 1493.17 1572.94 1468.98 C 1586.21 1425.52 1551.36 1411.4 1520.88 1393.68 L 1466.05 1361.88 C 1462.5 1359.86 1398.42 1322.34 1402.26 1323.07 C 1395.77 1325.75 1390.53 1335.11 1385.51 1340.51 C 1374.91 1351.91 1364.08 1363.12 1353.63 1374.67 C 1306.59 1420.02 1242.6 1457.24 1181.21 1479.13 C 1157.29 1487.67 1119.82 1494.3 1095.82 1499.6 z M 1471.7 849.077 C 1513.28 934.051 1514.1 1079.03 1483.79 1168.27 C 1480.24 1178.47 1476.4 1188.56 1472.28 1198.54 C 1488.92 1210.93 1528.46 1230.53 1548.38 1242.39 C 1573.28 1257.02 1598.92 1270.38 1623.48 1285.78 C 1641.26 1296.93 1661.16 1294.1 1677.31 1281.27 C 1687.58 1273.11 1694.09 1262.21 1694.23 1249.03 C 1694.86 1226.88 1694.67 1204.71 1694.65 1182.53 L 1694.65 1069.87 L 1694.79 884.673 C 1694.78 865.512 1694.83 846.424 1694.68 827.15 C 1694.48 799.565 1698.18 772.863 1668.1 759.118 C 1659.19 755.044 1647.66 754.056 1637.99 755.299 C 1623.67 759.776 1608.59 769.42 1595.37 777.061 L 1547.56 804.761 C 1523.74 818.522 1493.99 833.826 1471.7 849.077 z M 1140.94 326.474 C 1089.06 334.998 1096.73 367.689 1096.33 408.347 C 1096.27 414.839 1096.41 421.446 1096.46 427.925 L 1097.03 547.749 C 1190.74 561.155 1278.22 602.552 1348 666.517 C 1358.83 676.4 1369.58 686.772 1379.65 697.433 C 1387.39 705.617 1394.63 716.138 1403.28 723.139 C 1417.99 711.107 1463.83 686.551 1483.1 675.494 C 1508.39 661.888 1536.54 644.836 1560.43 628.522 C 1576.92 617.256 1578.58 586.469 1568.92 569.919 C 1558.31 553.737 1522.22 537.596 1504.41 526.98 C 1436.04 486.492 1367.18 446.85 1297.83 408.065 C 1274.78 394.878 1171.65 331.424 1154.71 327.552 C 1150.18 326.517 1145.56 326.261 1140.94 326.474 z M 821.524 1680.36 L 822.691 1680.93 C 846.176 1692.55 869.08 1710.19 892.898 1719.5 C 911.699 1726.85 940.172 1713.82 947.651 1695.46 C 949.898 1689.94 951.348 1684.27 951.63 1678.23 C 952.151 1652.95 952.365 1626.14 951.892 1600.89 C 951.262 1567.23 952.607 1531.9 951.593 1498.5 C 933.804 1495.28 916.835 1493 899.209 1488.38 C 810.523 1465.15 729.749 1415.13 668.24 1347.26 C 663.522 1342.05 652.13 1327.98 646.991 1323.97 C 633.729 1333.92 614.187 1344.04 599.2 1352.45 C 573.299 1366.85 547.54 1381.51 521.929 1396.42 C 510.328 1403.29 497.188 1410.67 487.212 1418.73 C 471.969 1431.05 467.431 1463.97 480.812 1478.52 C 497.448 1496.62 528.687 1511.73 550.044 1524.11 L 668.398 1591.56 C 699.384 1609.27 731.365 1628.2 762.167 1646.24 C 775.065 1653.79 811.365 1672.68 821.524 1680.36 z M 573.2 679.578 C 586.68 686.68 598.636 694.927 611.6 702.755 C 623.256 709.793 635.717 716.476 647.702 722.978 C 655.447 715.553 660.983 707.483 667.614 701.002 C 681.56 687.372 698.212 669.05 712.765 656.522 C 768.844 608.243 839.27 572.16 911.095 554.442 C 921.958 551.762 940.697 549.534 951.928 547.992 C 951.642 507.416 951.634 466.839 951.905 426.263 C 951.966 409.445 953.528 376.465 950.362 360.596 C 945.431 335.88 920.87 323.542 895.832 327.342 C 892.106 328.089 886.144 329.264 883.014 331.139 C 859.685 345.114 835.963 358.964 812.416 372.545 L 654.007 463.802 L 533.421 533.125 C 517.401 542.539 489.499 555.37 479.431 570.355 C 464.335 592.824 475.664 624.393 498.583 636.68 C 523.469 652.235 549.461 664.469 573.2 679.578 z"/>
<path transform="translate(0,0)" fill="rgb(10,7,13)" fill-opacity="0.0117647" d="M 1489.8 1492.45 L 1491.03 1493.33 C 1492.45 1495.89 1492.12 1500.5 1492.17 1503.68 C 1489.15 1501.35 1489.9 1496.22 1489.8 1492.45 z"/>
</svg>